# Rhino

g object_1
v 30 -20 0
v 25 -20 0
v 30 -30 0
v 25 -30 0
v 30 -25 0
v 25 -25 0
v 30 -30 0
v 25 -30 0
v 30 -30 25
v 25 -30 25
v 30 -30 12.5
v 25 -30 12.5
v 30 -30 25
v 25 -30 25
v 30 5.713509665383754e-10 25
v 25 5.713509665383754e-10 25
v 30 -15 25
v 27.5 5.713509665383754e-10 25
v 25 -5 25
v 25 -17.5 25
v 30 5.713509665383754e-10 25
v 30 -30 0
v 30 -30 25
v 30 -30 12.5
v 30 -15 25
v 30 5.713527428952148e-10 22.5
v 30 5.713545192520542e-10 20
v 30 -20 15
v 30 -20 7.5
v 30 -20 0
v 30 -25 0
v 30 -20 20
v 30 -20 17.5
v 30 -10 20
v 0 6.348344072648615e-10 0
v 0 -5 0
v 10 5.903960098585515e-10 0
v 10 -5 0
v 5 6.126151808061309e-10 0
v 5 -5 0
v 25 5.713509665383754e-10 25
v 25 -5 25
v 0 6.348344072648615e-10 25
v 0 -5 25
v 12.5 6.030926869016184e-10 25
v 12.5 -5 25
v 0 6.348344072648615e-10 25
v 0 -5 25
v 0 6.348344072648615e-10 0
v 0 -5 0
v 0 6.348344072648615e-10 12.5
v 0 -5 12.5
v 0 6.348344072648615e-10 0
v 0 6.348344072648615e-10 25
v 25 5.713509665383754e-10 25
v 5 6.126151808061309e-10 0
v 10 5.903960098585515e-10 0
v 12.5 6.030926869016184e-10 25
v 0 6.348344072648615e-10 12.5
v 10 5.808734604428878e-10 7.5
v 10 5.713509665383754e-10 15
v 10 5.808740155544001e-10 17.5
v 10 5.903970645704248e-10 20
v 17.5 5.856355400624125e-10 20
v 25 5.808740155544001e-10 20
v 25 5.761124910463877e-10 22.5
v 0 -5 0
v 0 -5 25
v 25 -5 25
v 5 -5 0
v 10 -5 0
v 12.5 -5 25
v 0 -5 12.5
v 10 -5 7.5
v 10 -5 15
v 10 -5 17.5
v 10 -5 20
v 17.5 -5 20
v 25 -5 20
v 25 -30 0
v 25 -30 25
v 25 -30 12.5
v 25 -17.5 25
v 25 -20 15
v 25 -20 7.5
v 25 -20 0
v 25 -25 0
v 25 -5 25
v 25 -5 20
v 25 -20 20
v 25 -20 17.5
v 25 -12.5 20
v 10 5.713509665383754e-10 15
v 10 -5 15
v 10 5.903960098585515e-10 0
v 10 -5 0
v 10 -2.5 15
v 10 5.808734604428878e-10 7.5
v 10 -5 7.5
v 30 -20 15
v 30 -20 0
v 25 -20 15
v 25 -20 0
v 27.5 -20 15
v 30 -20 7.5
v 25 -20 7.5
v 30 5.713509665383754e-10 25
v 25 5.713509665383754e-10 25
v 30 5.713545192520542e-10 20
v 25 5.808740155544001e-10 20
v 27.5 5.713509665383754e-10 25
v 30 5.713527428952148e-10 22.5
v 25 5.761124910463877e-10 22.5
v 27.5 5.761142674032271e-10 20
v 10 -5 20
v 10 5.903970645704248e-10 20
v 25 -5 20
v 25 5.808740155544001e-10 20
v 10 -2.5 20
v 17.5 5.856355400624125e-10 20
v 17.5 -5 20
v 10 -5 15
v 10 5.713509665383754e-10 15
v 10 -5 20
v 10 5.903970645704248e-10 20
v 10 -2.5 15
v 10 -2.5 20
v 10 5.808740155544001e-10 17.5
v 10 -5 17.5
v 30 -20 20
v 25 -20 20
v 30 5.713545192520542e-10 20
v 25 5.808740155544001e-10 20
v 25 -5 20
v 27.5 -20 20
v 30 -10 20
v 25 -12.5 20
v 27.5 5.761142674032271e-10 20
v 30 -20 15
v 25 -20 15
v 30 -20 20
v 25 -20 20
v 27.5 -20 15
v 27.5 -20 20
v 30 -20 17.5
v 25 -20 17.5
vt 0.4444444477558136 0.4000000059604645
vt 0.4444444477558136 0.4652018249034882
vt 0.5777778029441833 0.4000000059604645
vt 0.5777778029441833 0.4652018249034882
vt 0.5111111402511597 0.4000000059604645
vt 0.5111111402511597 0.4652018249034882
vt 0.2652018368244171 0.5047619342803955
vt 0.2000000029802322 0.5047619342803955
vt 0.2652018368244171 0.8380952477455139
vt 0.2000000029802322 0.8380952477455139
vt 0.2652018368244171 0.6714285612106323
vt 0.2000000029802322 0.6714285612106323
vt 0.3318684995174408 0.3333333432674408
vt 0.2666666805744171 0.3333333432674408
vt 0.3318684995174408 0.7333333492279053
vt 0.2666666805744171 0.7333333492279053
vt 0.3318684995174408 0.5333333611488342
vt 0.299267590045929 0.7333333492279053
vt 0.2666666805744171 0.6666666865348816
vt 0.2666666805744171 0.5
vt 0 0.3318684995174408
vt 0.4000000059604645 0
vt 0.4000000059604645 0.3318684995174408
vt 0.4000000059604645 0.1659342497587204
vt 0.2000000029802322 0.3318684995174408
vt 0 0.2986816465854645
vt 0 0.2654947936534882
vt 0.2666666805744171 0.1991211026906967
vt 0.2666666805744171 0.09956055134534836
vt 0.2666666805744171 0
vt 0.3333333134651184 0
vt 0.2666666805744171 0.2654947936534882
vt 0.2666666805744171 0.2323079407215118
vt 0.1333333402872086 0.2654947936534882
vt 0 0.3333333432674408
vt 0 0.4000000059604645
vt 0.1333333402872086 0.3333333432674408
vt 0.1333333402872086 0.4000000059604645
vt 0.06666667014360428 0.3333333432674408
vt 0.06666667014360428 0.4000000059604645
vt 0.3333333432674408 0.5333333611488342
vt 0.3333333432674408 0.5985351800918579
vt 0.6652018427848816 0.5333333611488342
vt 0.6652018427848816 0.5985351800918579
vt 0.499267578125 0.5333333611488342
vt 0.499267578125 0.5985351800918579
vt 0.3333333432674408 0.4666666686534882
vt 0.3333333432674408 0.5318685173988342
vt 0.6652018427848816 0.4666666686534882
vt 0.6652018427848816 0.5318685173988342
vt 0.499267578125 0.4666666686534882
vt 0.499267578125 0.5318685173988342
vt 0.99853515625 0.4666666686534882
vt 0.6666666865348816 0.4666666686534882
vt 0.6666666865348816 0.800000011920929
vt 0.99853515625 0.5333333611488342
vt 0.99853515625 0.6000000238418579
vt 0.6666666865348816 0.6333333253860474
vt 0.8326008915901184 0.4666666686534882
vt 0.898974597454071 0.6000000238418579
vt 0.7994140386581421 0.6000000238418579
vt 0.7662272453308105 0.6000000238418579
vt 0.7330403327941895 0.6000000238418579
vt 0.7330403327941895 0.699999988079071
vt 0.7330403327941895 0.800000011920929
vt 0.6998535394668579 0.800000011920929
vt 0.99853515625 0
vt 0.6666666865348816 0
vt 0.6666666865348816 0.3333333432674408
vt 0.99853515625 0.06666667014360428
vt 0.99853515625 0.1333333402872086
vt 0.6666666865348816 0.1666666716337204
vt 0.8326008915901184 0
vt 0.898974597454071 0.1333333402872086
vt 0.7994140386581421 0.1333333402872086
vt 0.7662272453308105 0.1333333402872086
vt 0.7330403327941895 0.1333333402872086
vt 0.7330403327941895 0.2333333343267441
vt 0.7330403327941895 0.3333333432674408
vt 0.6652018427848816 0.6000000238418579
vt 0.6652018427848816 0.9318684935569763
vt 0.6652018427848816 0.7659342288970947
vt 0.499267578125 0.9318684935569763
vt 0.5324544310569763 0.799121081829071
vt 0.5324544310569763 0.6995605230331421
vt 0.5324544310569763 0.6000000238418579
vt 0.598828136920929 0.6000000238418579
vt 0.3333333432674408 0.9318684935569763
vt 0.3333333432674408 0.8654947876930237
vt 0.5324544310569763 0.8654947876930237
vt 0.5324544310569763 0.8323079347610474
vt 0.4328938722610474 0.8654947876930237
vt 0.1318684965372086 0.5047619342803955
vt 0.06666667014360428 0.5047619342803955
vt 0.1318684965372086 0.7047619223594666
vt 0.06666667014360428 0.7047619223594666
vt 0.09926757961511612 0.5047619342803955
vt 0.1318684965372086 0.6047618985176086
vt 0.06666667014360428 0.6047618985176086
vt 0 0.5047619342803955
vt 0 0.7047619223594666
vt 0.06520182639360428 0.5047619342803955
vt 0.06520182639360428 0.7047619223594666
vt 0.03260091319680214 0.5047619342803955
vt 0 0.6047618985176086
vt 0.06520182639360428 0.6047618985176086
vt 0.5111111402511597 0.3333333432674408
vt 0.4444444477558136 0.3333333432674408
vt 0.5111111402511597 0.3985351622104645
vt 0.4444444477558136 0.3985351622104645
vt 0.4777777791023254 0.3333333432674408
vt 0.5111111402511597 0.3659342527389526
vt 0.4444444477558136 0.3659342527389526
vt 0.4777777791023254 0.3985351622104645
vt 0 0.419047623872757
vt 0 0.4857142865657806
vt 0.2000000029802322 0.419047623872757
vt 0.2000000029802322 0.4857142865657806
vt 0 0.4523809552192688
vt 0.1000000014901161 0.4857142865657806
vt 0.1000000014901161 0.419047623872757
vt 0.3333333432674408 0.4000000059604645
vt 0.3333333432674408 0.4652018249034882
vt 0.4000000059604645 0.4000000059604645
vt 0.4000000059604645 0.4652018249034882
vt 0.3333333432674408 0.4326009154319763
vt 0.4000000059604645 0.4326009154319763
vt 0.3666666746139526 0.4652018249034882
vt 0.3666666746139526 0.4000000059604645
vt 0.1985351592302322 0.5047619342803955
vt 0.1333333402872086 0.5047619342803955
vt 0.1985351592302322 0.7714285850524902
vt 0.1333333402872086 0.7714285850524902
vt 0.1333333402872086 0.7047619223594666
vt 0.1659342497587204 0.5047619342803955
vt 0.1985351592302322 0.6380952596664429
vt 0.1333333402872086 0.6047618985176086
vt 0.1659342497587204 0.7714285850524902
vt 0.3333333432674408 0.3333333432674408
vt 0.3333333432674408 0.3985351622104645
vt 0.4000000059604645 0.3333333432674408
vt 0.4000000059604645 0.3985351622104645
vt 0.3333333432674408 0.3659342527389526
vt 0.4000000059604645 0.3659342527389526
vt 0.3666666746139526 0.3333333432674408
vt 0.3666666746139526 0.3985351622104645
vn 0 0 -1
vn 0 0 -1
vn 0 0 -1
vn 0 0 -1
vn 0 0 -1
vn 0 0 -1
vn 0 -1 0
vn 0 -1 0
vn 0 -1 0
vn 0 -1 0
vn 0 -1 0
vn 0 -1 0
vn 0 0 1
vn 0 0 1
vn 0 0 1
vn 0 0 1
vn 0 0 1
vn 0 0 1
vn 0 0 1
vn 0 0 1
vn 1 0 0
vn 1 0 0
vn 1 0 0
vn 1 0 0
vn 1 0 0
vn 1 0 0
vn 1 0 0
vn 1 0 0
vn 1 0 0
vn 1 0 0
vn 1 0 0
vn 1 0 0
vn 1 0 0
vn 1 0 0
vn 0 0 -1
vn 0 0 -1
vn 0 0 -1
vn 0 0 -1
vn 0 0 -1
vn 0 0 -1
vn 0 0 1
vn 0 0 1
vn 0 0 1
vn 0 0 1
vn 0 0 1
vn 0 0 1
vn -1 0 0
vn -1 0 0
vn -1 0 0
vn -1 0 0
vn -1 0 0
vn -1 0 0
vn 0 1 0
vn 0 1 0
vn 0 1 0
vn 0 1 0
vn 0 1 0
vn 0 1 0
vn 0 1 0
vn 0 1 0
vn 0 1 0
vn 0 1 0
vn 0 1 0
vn 0 1 0
vn 0 1 0
vn 0 1 0
vn 0 -1 0
vn 0 -1 0
vn 0 -1 0
vn 0 -1 0
vn 0 -1 0
vn 0 -1 0
vn 0 -1 0
vn 0 -1 0
vn 0 -1 0
vn 0 -1 0
vn 0 -1 0
vn 0 -1 0
vn 0 -1 0
vn -1 0 0
vn -1 0 0
vn -1 0 0
vn -1 0 0
vn -1 0 0
vn -1 0 0
vn -1 0 0
vn -1 0 0
vn -1 0 0
vn -1 0 0
vn -1 0 0
vn -1 0 0
vn -1 0 0
vn 1 0 0
vn 1 0 0
vn 1 0 0
vn 1 0 0
vn 1 0 0
vn 1 0 0
vn 1 0 0
vn 0 1 0
vn 0 1 0
vn 0 1 0
vn 0 1 0
vn 0 1 0
vn 0 1 0
vn 0 1 0
vn 0 1 0
vn 0 1 0
vn 0 1 0
vn 0 1 0
vn 0 1 0
vn 0 1 0
vn 0 1 0
vn 0 1 0
vn 0 0 -1
vn 0 0 -1
vn 0 0 -1
vn 0 0 -1
vn 0 0 -1
vn 0 0 -1
vn 0 0 -1
vn 1 0 0
vn 1 0 0
vn 1 0 0
vn 1 0 0
vn 1 0 -5.551115123125783e-17
vn 1 0 0
vn 1 0 0
vn 1 0 0
vn 0 0 -1
vn 0 0 -1
vn 0 0 -1
vn 0 0 -1
vn 0 0 -1
vn 0 0 -1
vn 0 0 -1
vn 0 0 -1
vn 0 -8.326672684688674e-17 -1
vn 0 1 0
vn 0 1 0
vn 0 1 0
vn 0 1 0
vn 0 1 5.551115123125783e-17
vn 0 1 0
vn 0 1 0
vn 0 1 0
f 6/6/6 2/2/2 1/1/1 5/5/5
f 5/5/5 3/3/3 4/4/4 6/6/6
f 8/8/8 7/7/7 11/11/11 12/12/12
f 9/9/9 10/10/10 12/12/12 11/11/11
f 13/13/13 17/17/17 20/20/20 14/14/14
f 20/20/20 17/17/17 18/18/18
f 20/20/20 18/18/18 19/19/19
f 18/18/18 16/16/16 19/19/19
f 15/15/15 18/18/18 17/17/17
f 26/26/26 34/34/34 27/27/27
f 21/21/21 34/34/34 26/26/26
f 23/23/23 32/32/32 25/25/25
f 25/25/25 34/34/34 21/21/21
f 25/25/25 32/32/32 34/34/34
f 32/32/32 23/23/23 33/33/33
f 29/29/29 31/31/31 30/30/30
f 29/29/29 22/22/22 31/31/31
f 24/24/24 29/29/29 28/28/28
f 24/24/24 33/33/33 23/23/23
f 24/24/24 22/22/22 29/29/29
f 28/28/28 33/33/33 24/24/24
f 36/36/36 35/35/35 39/39/39 40/40/40
f 37/37/37 38/38/38 40/40/40 39/39/39
f 42/42/42 41/41/41 45/45/45 46/46/46
f 43/43/43 44/44/44 46/46/46 45/45/45
f 48/48/48 47/47/47 51/51/51 52/52/52
f 49/49/49 50/50/50 52/52/52 51/51/51
f 59/59/59 56/56/56 53/53/53
f 60/60/60 57/57/57 56/56/56
f 54/54/54 63/63/63 62/62/62 59/59/59
f 59/59/59 61/61/61 60/60/60
f 60/60/60 56/56/56 59/59/59
f 61/61/61 59/59/59 62/62/62
f 58/58/58 64/64/64 63/63/63
f 64/64/64 55/55/55 66/66/66
f 65/65/65 64/64/64 66/66/66
f 64/64/64 58/58/58 55/55/55
f 54/54/54 58/58/58 63/63/63
f 73/73/73 67/67/67 70/70/70
f 74/74/74 70/70/70 71/71/71
f 68/68/68 73/73/73 76/76/76 77/77/77
f 70/70/70 74/74/74 73/73/73
f 74/74/74 75/75/75 73/73/73
f 73/73/73 75/75/75 76/76/76
f 69/69/69 72/72/72 78/78/78 79/79/79
f 77/77/77 78/78/78 72/72/72
f 68/68/68 77/77/77 72/72/72
f 88/88/88 89/89/89 92/92/92
f 88/88/88 92/92/92 83/83/83
f 90/90/90 83/83/83 92/92/92
f 81/81/81 83/83/83 90/90/90
f 90/90/90 91/91/91 81/81/81
f 85/85/85 86/86/86 87/87/87
f 82/82/82 87/87/87 80/80/80
f 82/82/82 84/84/84 85/85/85
f 82/82/82 81/81/81 91/91/91
f 82/82/82 85/85/85 87/87/87
f 84/84/84 82/82/82 91/91/91
f 98/98/98 93/93/93 97/97/97
f 99/99/99 97/97/97 94/94/94
f 95/95/95 98/98/98 99/99/99 96/96/96
f 97/97/97 99/99/99 98/98/98
f 104/104/104 100/100/100 105/105/105
f 101/101/101 103/103/103 106/106/106 105/105/105
f 106/106/106 102/102/102 104/104/104
f 104/104/104 105/105/105 106/106/106
f 111/111/111 107/107/107 112/112/112
f 111/111/111 113/113/113 108/108/108
f 114/114/114 111/111/111 112/112/112
f 111/111/111 114/114/114 113/113/113
f 114/114/114 110/110/110 113/113/113
f 109/109/109 114/114/114 112/112/112
f 121/121/121 115/115/115 119/119/119
f 120/120/120 119/119/119 116/116/116
f 117/117/117 121/121/121 120/120/120 118/118/118
f 119/119/119 120/120/120 121/121/121
f 126/126/126 129/129/129 122/122/122
f 126/126/126 123/123/123 128/128/128
f 128/128/128 129/129/129 126/126/126
f 129/129/129 128/128/128 127/127/127
f 127/127/127 128/128/128 125/125/125
f 124/124/124 129/129/129 127/127/127
f 138/138/138 135/135/135 137/137/137
f 135/135/135 131/131/131 137/137/137
f 136/136/136 130/130/130 135/135/135
f 138/138/138 132/132/132 136/136/136
f 133/133/133 138/138/138 134/134/134
f 138/138/138 137/137/137 134/134/134
f 136/136/136 135/135/135 138/138/138
f 143/143/143 145/145/145 139/139/139
f 143/143/143 140/140/140 146/146/146
f 146/146/146 145/145/145 143/143/143
f 145/145/145 146/146/146 144/144/144
f 144/144/144 146/146/146 142/142/142
f 141/141/141 145/145/145 144/144/144
